<svg width="40" height="40" viewBox="0 0 40 40" fill="none" xmlns="http://www.w3.org/2000/svg">
<g clip-path="url(#clip0_3909_8769)">
<mask id="mask0_3909_8769" style="mask-type:alpha" maskUnits="userSpaceOnUse" x="0" y="0" width="40" height="40">
<path d="M28 0H12C5.37258 0 0 5.37258 0 12V28C0 34.6274 5.37258 40 12 40H28C34.6274 40 40 34.6274 40 28V12C40 5.37258 34.6274 0 28 0Z" fill="#C4C4C4" style="fill:#C4C4C4;fill:color(display-p3 0.7686 0.7686 0.7686);fill-opacity:1;"/>
</mask>
<g mask="url(#mask0_3909_8769)">
<path d="M28 0H12C5.37258 0 0 5.37258 0 12V28C0 34.6274 5.37258 40 12 40H28C34.6274 40 40 34.6274 40 28V12C40 5.37258 34.6274 0 28 0Z" fill="url(#paint0_linear_3909_8769)" style=""/>
<path d="M27.6 47.2C36.8784 47.2 44.4 39.6784 44.4 30.4C44.4 21.1216 36.8784 13.6 27.6 13.6C18.3216 13.6 10.8 21.1216 10.8 30.4C10.8 39.6784 18.3216 47.2 27.6 47.2Z" fill="url(#paint1_linear_3909_8769)" style=""/>
<g filter="url(#filter0_d_3909_8769)">
<path fill-rule="evenodd" clip-rule="evenodd" d="M27.8922 12.1079C27.472 11.6877 26.8402 11.4534 26.2162 11.3101C25.5718 11.1621 24.8341 11.0894 24.1091 11.0593C22.657 10.9991 21.1732 11.1069 20.4148 11.1766C19.9415 11.2201 19.5045 11.4137 19.1527 11.7161C16.5257 13.9739 14.1343 16.3143 11.8462 18.8697C10.7993 20.039 10.7882 21.7847 11.731 23.0024C13.2857 25.0105 14.9896 26.7143 16.9976 28.2691C18.2153 29.2118 19.9611 29.2007 21.1303 28.1538C23.6857 25.8657 26.0262 23.4743 28.2839 20.8474C28.5863 20.4955 28.7799 20.0585 28.8234 19.5852C28.8931 18.8268 29.0009 17.343 28.9407 15.8909C28.9106 15.1659 28.8379 14.4282 28.6899 13.7837C28.5467 13.1599 28.3123 12.528 27.8922 12.1079ZM19.1635 16.6667C18.7032 16.6667 18.3301 17.0398 18.3301 17.5C18.3301 17.9603 18.7032 18.3334 19.1635 18.3334H19.1759C19.6362 18.3334 20.0092 17.9603 20.0092 17.5C20.0092 17.0398 19.6362 16.6667 19.1759 16.6667H19.1635ZM19.1666 23.3334C18.7063 23.3334 18.3332 23.7065 18.3332 24.1667C18.3332 24.6269 18.7063 25.0001 19.1666 25.0001H19.179C19.6392 25.0001 20.0123 24.6269 20.0123 24.1667C20.0123 23.7065 19.6392 23.3334 19.179 23.3334H19.1666ZM15 20.8334C15 20.3731 15.3731 20.0001 15.8334 20.0001H22.5001C22.9602 20.0001 23.3334 20.3731 23.3334 20.8334C23.3334 21.2936 22.9602 21.6667 22.5001 21.6667H15.8334C15.3731 21.6667 15 21.2936 15 20.8334ZM24.5834 14.1667C25.2737 14.1667 25.8334 14.7263 25.8334 15.4167C25.8334 16.107 25.2737 16.6667 24.5834 16.6667C23.893 16.6667 23.3334 16.107 23.3334 15.4167C23.3334 14.7263 23.893 14.1667 24.5834 14.1667Z" fill="white" style="fill:white;fill-opacity:1;"/>
</g>
</g>
</g>
<defs>
<filter id="filter0_d_3909_8769" x="1" y="5" width="38" height="38" filterUnits="userSpaceOnUse" color-interpolation-filters="sRGB">
<feFlood flood-opacity="0" result="BackgroundImageFix"/>
<feColorMatrix in="SourceAlpha" type="matrix" values="0 0 0 0 0 0 0 0 0 0 0 0 0 0 0 0 0 0 127 0" result="hardAlpha"/>
<feOffset dy="4"/>
<feGaussianBlur stdDeviation="4.5"/>
<feColorMatrix type="matrix" values="0 0 0 0 0.6125 0 0 0 0 0.294801 0 0 0 0 0 0 0 0 0.4 0"/>
<feBlend mode="normal" in2="BackgroundImageFix" result="effect1_dropShadow_3909_8769"/>
<feBlend mode="normal" in="SourceGraphic" in2="effect1_dropShadow_3909_8769" result="shape"/>
</filter>
<linearGradient id="paint0_linear_3909_8769" x1="0" y1="0" x2="40" y2="40" gradientUnits="userSpaceOnUse">
<stop stop-color="#FDD549" style="stop-color:#FDD549;stop-color:color(display-p3 0.9922 0.8353 0.2863);stop-opacity:1;"/>
<stop offset="1" stop-color="#D66700" style="stop-color:#D66700;stop-color:color(display-p3 0.8392 0.4039 0.0000);stop-opacity:1;"/>
</linearGradient>
<linearGradient id="paint1_linear_3909_8769" x1="10.8" y1="13.6" x2="44.4" y2="47.2" gradientUnits="userSpaceOnUse">
<stop stop-color="#F8C840" style="stop-color:#F8C840;stop-color:color(display-p3 0.9725 0.7843 0.2510);stop-opacity:1;"/>
<stop offset="1" stop-color="#D66700" style="stop-color:#D66700;stop-color:color(display-p3 0.8392 0.4039 0.0000);stop-opacity:1;"/>
</linearGradient>
<clipPath id="clip0_3909_8769">
<rect width="40" height="40" fill="white" style="fill:white;fill-opacity:1;"/>
</clipPath>
</defs>
</svg>
