<svg width="1000" height="1000" viewBox="0 0 1000 1000" fill="none" xmlns="http://www.w3.org/2000/svg">
<path d="M479.167 52.0833C508.417 52.0821 541.196 52.0808 562.042 54.4316C584.521 56.9658 605.733 62.5696 625.029 76.3041C644.204 89.9525 656.05 107.772 665.396 127.611C674.154 146.213 682.108 169.786 691.4 197.316L696 210.939C702.721 230.854 691.217 252.188 670.304 258.59C649.396 264.991 626.992 254.035 620.271 234.12C610.154 204.142 599.558 172.922 592.821 158.617C586.463 145.12 581.671 140.015 577.408 136.981C573.267 134.034 567.204 131.296 552.692 129.66C537.075 127.899 511.246 127.837 479.167 127.837C447.088 127.837 421.258 127.899 405.642 129.66C391.131 131.296 385.066 134.034 380.925 136.981C376.663 140.015 371.871 145.12 365.513 158.617C358.775 172.922 348.179 204.142 338.061 234.12C331.34 254.035 308.939 264.991 288.028 258.59C267.117 252.188 255.614 230.854 262.335 210.939L266.933 197.316C276.223 169.786 284.178 146.213 292.94 127.611C302.284 107.772 314.131 89.9525 333.304 76.3041C352.598 62.5696 373.815 56.9658 396.29 54.4316C417.138 52.0808 449.917 52.0821 479.167 52.0833Z" fill="black" style="fill:black;fill-opacity:1;"/>
<path fill-rule="evenodd" clip-rule="evenodd" d="M531.25 719.854C531.25 615.692 615.692 531.25 719.854 531.25C824.021 531.25 908.463 615.692 908.463 719.854C908.463 756.9 897.783 791.446 879.333 820.592L935.667 876.742C951.962 892.987 952.004 919.367 935.758 935.667C919.513 951.962 893.133 952.004 876.833 935.758L820.367 879.475C791.271 897.838 756.804 908.463 719.854 908.463C615.692 908.463 531.25 824.021 531.25 719.854ZM719.854 614.583C661.717 614.583 614.583 661.717 614.583 719.854C614.583 777.996 661.717 825.129 719.854 825.129C777.996 825.129 825.129 777.996 825.129 719.854C825.129 661.717 777.996 614.583 719.854 614.583Z" fill="black" style="fill:black;fill-opacity:1;"/>
<path d="M561.054 197.917H397.848C325.175 197.916 267.394 197.915 222.126 204.117C175.405 210.518 137.39 224.046 107.437 254.569C77.5645 285.009 64.397 323.505 58.1528 370.832C52.082 416.842 52.0828 480.233 52.0833 554.387C52.0828 628.546 52.082 687.325 58.1528 733.333C64.397 780.662 77.5645 819.158 107.437 849.6C137.39 880.121 175.405 893.65 222.126 900.05C267.394 906.25 325.173 906.25 397.844 906.25H551.592C500.721 860.296 468.75 793.808 468.75 719.854C468.75 581.175 581.175 468.75 719.854 468.75C793.808 468.75 860.296 500.721 906.25 551.592V458.012L906.242 457.687C904.375 367.047 896.962 300.93 851.467 254.569C821.512 224.046 783.496 210.518 736.775 204.117C691.508 197.915 633.729 197.916 561.054 197.917Z" fill="black" style="fill:black;fill-opacity:1;"/>
</svg>
